<svg id="visual" viewBox="0 0 900 600" width="900" height="600" xmlns="http://www.w3.org/2000/svg" xmlns:xlink="http://www.w3.org/1999/xlink" version="1.1"><rect x="0" y="0" width="900" height="600" fill="#000"></rect><path d="M662 0L626.5 14.3C591 28.7 520 57.3 509.2 85.8C498.3 114.3 547.7 142.7 553.2 171.2C558.7 199.7 520.3 228.3 472.2 257C424 285.7 366 314.3 334.2 343C302.3 371.7 296.7 400.3 311.2 428.8C325.7 457.3 360.3 485.7 382.5 514.2C404.7 542.7 414.3 571.3 419.2 585.7L424 600L0 600L0 585.7C0 571.3 0 542.7 0 514.2C0 485.7 0 457.3 0 428.8C0 400.3 0 371.7 0 343C0 314.3 0 285.7 0 257C0 228.3 0 199.7 0 171.2C0 142.7 0 114.3 0 85.8C0 57.3 0 28.7 0 14.3L0 0Z" fill="#36BA98" stroke-linecap="round" stroke-linejoin="miter"></path></svg>